<svg xmlns="http://www.w3.org/2000/svg" xmlns:xlink="http://www.w3.org/1999/xlink" width="400" zoomAndPan="magnify" viewBox="0 0 300 74.999997" height="100" preserveAspectRatio="xMidYMid meet" version="1.0"><defs><g/><clipPath id="6dc1fbb13d"><path d="M 3.75 1.917969 L 74.988281 1.917969 L 74.988281 73.15625 L 3.75 73.15625 Z M 3.75 1.917969 " clip-rule="nonzero"/></clipPath><clipPath id="5621dba3cb"><path d="M 3.75 1.917969 L 52.347656 1.917969 L 52.347656 50.519531 L 3.75 50.519531 Z M 3.75 1.917969 " clip-rule="nonzero"/></clipPath><clipPath id="214b046686"><path d="M 0.75 0.917969 L 49.347656 0.917969 L 49.347656 49.519531 L 0.75 49.519531 Z M 0.75 0.917969 " clip-rule="nonzero"/></clipPath><clipPath id="42c17d56e0"><rect x="0" width="50" y="0" height="50"/></clipPath><clipPath id="5e06945b00"><path d="M 3.75 1.917969 L 52.347656 1.917969 L 52.347656 50.515625 L 3.75 50.515625 Z M 3.75 1.917969 " clip-rule="nonzero"/></clipPath><clipPath id="d609333b9d"><rect x="0" width="218" y="0" height="75"/></clipPath></defs><g clip-path="url(#6dc1fbb13d)"><path stroke-linecap="butt" transform="matrix(0.75, 0, 0, 0.75, 3.750006, 1.918766)" fill="none" stroke-linejoin="miter" d="M -0.00000759167 -0.00106282 L 94.984375 -0.00106282 L 94.984375 94.98332 L -0.00000759167 94.98332 Z M -0.00000759167 -0.00106282 " stroke="#000000" stroke-width="2" stroke-opacity="1" stroke-miterlimit="4"/></g><g clip-path="url(#5621dba3cb)"><g transform="matrix(1, 0, 0, 1, 3, 1)"><g clip-path="url(#42c17d56e0)"><g clip-path="url(#214b046686)"><path fill="#000000" d="M 0.75 0.917969 L 49.347656 0.917969 L 49.347656 49.519531 L 0.75 49.519531 Z M 0.75 0.917969 " fill-opacity="1" fill-rule="nonzero"/></g></g></g></g><g clip-path="url(#5e06945b00)"><path stroke-linecap="butt" transform="matrix(0.75, 0, 0, 0.75, 3.750006, 1.918766)" fill="none" stroke-linejoin="miter" d="M -0.00000759167 -0.00106282 L 64.796873 -0.00106282 L 64.796873 64.795817 L -0.00000759167 64.795817 Z M -0.00000759167 -0.00106282 " stroke="#000000" stroke-width="2" stroke-opacity="1" stroke-miterlimit="4"/></g><g transform="matrix(1, 0, 0, 1, 82, -0.000000000000001893)"><g clip-path="url(#d609333b9d)"><g fill="#000000" fill-opacity="1"><g transform="translate(0.186039, 67.268242)"><g><path d="M 5.703125 0 L 5.703125 -60.5 L 27.40625 -60.5 L 39.421875 -7.78125 L 40.96875 -7.78125 L 40.96875 -60.5 L 52.203125 -60.5 L 52.203125 0 L 30.515625 0 L 18.5 -52.734375 L 16.9375 -52.734375 L 16.9375 0 Z M 5.703125 0 "/></g></g></g><g fill="#000000" fill-opacity="1"><g transform="translate(58.095787, 67.268242)"><g><path d="M 26.453125 1.203125 C 22.179688 1.203125 18.347656 0.34375 14.953125 -1.375 C 11.554688 -3.101562 8.875 -5.609375 6.90625 -8.890625 C 4.945312 -12.179688 3.96875 -16.132812 3.96875 -20.75 L 3.96875 -22.125 C 3.96875 -26.738281 4.945312 -30.6875 6.90625 -33.96875 C 8.875 -37.25 11.554688 -39.753906 14.953125 -41.484375 C 18.347656 -43.210938 22.179688 -44.078125 26.453125 -44.078125 C 30.710938 -44.078125 34.539062 -43.210938 37.9375 -41.484375 C 41.34375 -39.753906 44.023438 -37.25 45.984375 -33.96875 C 47.941406 -30.6875 48.921875 -26.738281 48.921875 -22.125 L 48.921875 -20.75 C 48.921875 -16.132812 47.941406 -12.179688 45.984375 -8.890625 C 44.023438 -5.609375 41.34375 -3.101562 37.9375 -1.375 C 34.539062 0.34375 30.710938 1.203125 26.453125 1.203125 Z M 26.453125 -8.46875 C 29.796875 -8.46875 32.5625 -9.546875 34.75 -11.703125 C 36.9375 -13.867188 38.03125 -16.96875 38.03125 -21 L 38.03125 -21.875 C 38.03125 -25.90625 36.945312 -29 34.78125 -31.15625 C 32.625 -33.320312 29.847656 -34.40625 26.453125 -34.40625 C 23.109375 -34.40625 20.34375 -33.320312 18.15625 -31.15625 C 15.96875 -29 14.875 -25.90625 14.875 -21.875 L 14.875 -21 C 14.875 -16.96875 15.96875 -13.867188 18.15625 -11.703125 C 20.34375 -9.546875 23.109375 -8.46875 26.453125 -8.46875 Z M 26.453125 -8.46875 "/></g></g></g><g fill="#000000" fill-opacity="1"><g transform="translate(110.819594, 67.268242)"><g><path d="M 9.515625 0 L 3.453125 -42.875 L 14.265625 -42.875 L 18.0625 -7.34375 L 19.625 -7.34375 L 25.15625 -42.875 L 42.609375 -42.875 L 48.140625 -7.34375 L 49.703125 -7.34375 L 53.5 -42.875 L 64.3125 -42.875 L 58.265625 0 L 40.1875 0 L 34.65625 -35.53125 L 33.109375 -35.53125 L 27.578125 0 Z M 9.515625 0 "/></g></g></g><g fill="#000000" fill-opacity="1"><g transform="translate(178.582633, 67.268242)"><g><path d="M 22.46875 0 C 19.644531 0 17.351562 -0.875 15.59375 -2.625 C 13.84375 -4.382812 12.96875 -6.738281 12.96875 -9.6875 L 12.96875 -33.890625 L 2.25 -33.890625 L 2.25 -42.875 L 12.96875 -42.875 L 12.96875 -56.1875 L 23.859375 -56.1875 L 23.859375 -42.875 L 35.609375 -42.875 L 35.609375 -33.890625 L 23.859375 -33.890625 L 23.859375 -11.578125 C 23.859375 -9.847656 24.664062 -8.984375 26.28125 -8.984375 L 34.578125 -8.984375 L 34.578125 0 Z M 22.46875 0 "/></g></g></g></g></g></svg>